<?xml version="1.0" encoding="UTF-8"?>
<!DOCTYPE svg PUBLIC "-//W3C//DTD SVG 1.1//EN" "http://www.w3.org/Graphics/SVG/1.1/DTD/svg11.dtd">
<svg xmlns="http://www.w3.org/2000/svg" version="1.1" width="64px" height="64px" style="shape-rendering:geometricPrecision; text-rendering:geometricPrecision; image-rendering:optimizeQuality; fill-rule:evenodd; clip-rule:evenodd" xmlns:xlink="http://www.w3.org/1999/xlink">
<g><path style="opacity:0.998" fill="#9e34c3" d="M 27.5,13.5 C 36.1731,13.3336 44.8397,13.5002 53.5,14C 54,14.5 54.5,15 55,15.5C 56.7345,25.2807 56.9011,34.9473 55.5,44.5C 55.8288,38.7945 55.4954,33.1278 54.5,27.5C 52.8662,27.968 51.6995,28.968 51,30.5C 50.8052,35.4179 50.3052,40.2512 49.5,45C 43.8333,45.3333 38.1667,45.6667 32.5,46C 30.6243,46.9184 29.6243,48.4184 29.5,50.5C 22.825,50.6663 16.1583,50.4996 9.5,50C 9,49.5 8.5,49 8,48.5C 7.50115,44.5138 7.33449,40.5138 7.5,36.5C 12.0242,34.8025 13.6908,31.4692 12.5,26.5C 12.5,23.8333 12.5,21.1667 12.5,18.5C 14.1667,18.5 15.8333,18.5 17.5,18.5C 22.4692,19.6908 25.8025,18.0242 27.5,13.5 Z"/></g>
<g><path style="opacity:1" fill="#fbf6fc" d="M 17.5,18.5 C 15.8333,18.5 14.1667,18.5 12.5,18.5C 12.5,21.1667 12.5,23.8333 12.5,26.5C 11.5,26.5 10.5,26.5 9.5,26.5C 9.33537,23.4816 9.50204,20.4816 10,17.5C 12.1354,15.7215 14.6354,15.0548 17.5,15.5C 17.5,16.5 17.5,17.5 17.5,18.5 Z"/></g>
<g><path style="opacity:0.999" fill="#b970d3" d="M 27.5,13.5 C 25.8025,18.0242 22.4692,19.6908 17.5,18.5C 17.5,17.5 17.5,16.5 17.5,15.5C 14.6354,15.0548 12.1354,15.7215 10,17.5C 9.50204,20.4816 9.33537,23.4816 9.5,26.5C 10.5,26.5 11.5,26.5 12.5,26.5C 13.6908,31.4692 12.0242,34.8025 7.5,36.5C 7.33371,29.4921 7.50038,22.4921 8,15.5C 8.5,15 9,14.5 9.5,14C 15.4908,13.5005 21.4908,13.3338 27.5,13.5 Z"/></g>
<g><path style="opacity:1" fill="#fd9eac" d="M 25.5,21.5 C 31.3312,23.5826 36.3312,26.9159 40.5,31.5C 24.8281,46.8928 19.8281,43.5595 25.5,21.5 Z"/></g>
<g><path style="opacity:0.986" fill="#852ca5" d="M 55.5,44.5 C 55.822,46.7224 55.1554,48.5557 53.5,50C 45.5069,50.4997 37.5069,50.6664 29.5,50.5C 29.6243,48.4184 30.6243,46.9184 32.5,46C 38.1667,45.6667 43.8333,45.3333 49.5,45C 50.3052,40.2512 50.8052,35.4179 51,30.5C 51.6995,28.968 52.8662,27.968 54.5,27.5C 55.4954,33.1278 55.8288,38.7945 55.5,44.5 Z"/></g>
<g><path style="opacity:0.257" fill="#000000" d="M 48.5,63.5 C 37.1667,63.5 25.8333,63.5 14.5,63.5C 13.0484,62.6981 11.3817,62.1981 9.5,62C 8.16667,61 8.16667,60 9.5,59C 24.1667,57 38.8333,57 53.5,59C 54.8333,60 54.8333,61 53.5,62C 51.6183,62.1981 49.9516,62.6981 48.5,63.5 Z"/></g>
</svg>
